<svg xmlns="http://www.w3.org/2000/svg" width="103" height="30"><defs><linearGradient id="a" x1="61.267%" x2="26.016%" y1="4.96%" y2="71.909%"><stop offset="0%" stop-color="#00A0FF"/><stop offset=".66%" stop-color="#00A1FF"/><stop offset="26.01%" stop-color="#00BEFF"/><stop offset="51.22%" stop-color="#00D2FF"/><stop offset="76.04%" stop-color="#00DFFF"/><stop offset="100%" stop-color="#00E3FF"/></linearGradient><linearGradient id="b" x1="107.586%" x2="-130.492%" y1="50.016%" y2="50.016%"><stop offset="0%" stop-color="#FFE000"/><stop offset="40.87%" stop-color="#FFBD00"/><stop offset="77.54%" stop-color="orange"/><stop offset="100%" stop-color="#FF9C00"/></linearGradient><linearGradient id="c" x1="86.238%" x2="-50.131%" y1="89.48%" y2="192.433%"><stop offset="0%" stop-color="#FF3A44"/><stop offset="100%" stop-color="#C31162"/></linearGradient><linearGradient id="d" x1="-18.801%" x2="42.094%" y1="-68.722%" y2="-22.765%"><stop offset="0%" stop-color="#32A071"/><stop offset="6.85%" stop-color="#2DA771"/><stop offset="47.62%" stop-color="#15CF74"/><stop offset="80.09%" stop-color="#06E775"/><stop offset="100%" stop-color="#00F076"/></linearGradient></defs><g fill="none"><path fill="#000" d="M99.084 30.195H3.748c-2.097 0-3.814-1.7-3.814-3.774V3.775C-.066 1.7 1.651.001 3.748.001h95.336c2.096 0 3.813 1.7 3.813 3.774v22.646c0 2.074-1.717 3.774-3.813 3.774z"/><path fill="#A6A6A6" d="M99.084.606c1.766 0 3.202 1.422 3.202 3.17V26.42c0 1.747-1.436 3.169-3.202 3.169H3.748c-1.766 0-3.203-1.422-3.203-3.17V3.776c0-1.747 1.437-3.17 3.203-3.17h95.336zm0-.605H3.748c-2.097 0-3.814 1.7-3.814 3.774v22.646c0 2.074 1.717 3.774 3.814 3.774h95.336c2.096 0 3.813-1.7 3.813-3.774V3.775c0-2.075-1.717-3.774-3.813-3.774z"/><path fill="#FFF" stroke="#FFF" stroke-width=".5" d="M36.1 7.734c0 .63-.19 1.135-.566 1.511-.432.447-.995.671-1.684.671a2.326 2.326 0 01-1.683-.678c-.462-.457-.693-1.017-.693-1.688s.23-1.232.693-1.685a2.314 2.314 0 011.683-.682c.328 0 .64.067.939.192.297.125.54.295.715.505l-.398.398c-.306-.358-.723-.534-1.256-.534-.48 0-.897.166-1.25.5-.35.337-.526.772-.526 1.306s.175.972.525 1.308c.354.332.77.501 1.251.501.51 0 .939-.17 1.277-.504.224-.222.35-.528.384-.918H33.85V7.39h2.216c.026.118.034.232.034.343h0zm3.514-1.891h-2.081v1.434h1.876v.545h-1.876v1.435h2.081v.555h-2.67V5.287h2.67zm2.481 3.969h-.589V5.843H40.23v-.556h3.143v.556h-1.278v3.969zm3.552 0V5.287h.588v4.525zm3.196 0h-.585V5.843h-1.281v-.556h3.147v.556h-1.281zm7.232-.582c-.45.458-1.01.686-1.676.686-.67 0-1.229-.228-1.68-.686-.45-.457-.674-1.017-.674-1.68 0-.664.224-1.224.674-1.68.451-.458 1.01-.687 1.68-.687.663 0 1.221.229 1.672.69.454.46.678 1.017.678 1.677 0 .663-.224 1.223-.674 1.68zm-2.92-.38c.34.34.752.51 1.244.51.488 0 .905-.17 1.24-.51.339-.338.51-.773.51-1.3 0-.528-.171-.963-.51-1.302a1.683 1.683 0 00-1.24-.508c-.492 0-.905.17-1.244.508-.339.34-.51.774-.51 1.302 0 .527.171.962.51 1.3h0zm4.42.962V5.287h.716l2.223 3.519h.026l-.026-.869v-2.65h.588v4.525h-.614L58.16 6.119h-.026l.026.874v2.819h-.585z"/><path fill="#FFF" d="M51.9 16.42c-1.791 0-3.255 1.35-3.255 3.212 0 1.846 1.464 3.21 3.255 3.21 1.795 0 3.259-1.364 3.259-3.21 0-1.862-1.464-3.211-3.259-3.211zm0 5.157c-.983 0-1.828-.803-1.828-1.945 0-1.158.845-1.947 1.828-1.947.983 0 1.832.789 1.832 1.947 0 1.142-.849 1.945-1.832 1.945zm-7.102-5.156c-1.795 0-3.254 1.349-3.254 3.21 0 1.847 1.46 3.21 3.254 3.21 1.795 0 3.255-1.363 3.255-3.21 0-1.861-1.46-3.21-3.255-3.21zm0 5.156c-.983 0-1.832-.803-1.832-1.945 0-1.158.849-1.947 1.832-1.947.983 0 1.829.789 1.829 1.947 0 1.142-.846 1.945-1.829 1.945zm-8.45-4.172v1.364h3.292c-.096.763-.354 1.323-.749 1.714-.48.472-1.228.995-2.543.995a3.596 3.596 0 01-3.612-3.623 3.596 3.596 0 013.612-3.623 3.51 3.51 0 012.48.973l.972-.962c-.823-.777-1.917-1.375-3.452-1.375-2.778 0-5.113 2.237-5.113 4.987s2.335 4.987 5.113 4.987c1.501 0 2.63-.487 3.516-1.4.908-.9 1.192-2.164 1.192-3.185 0-.317-.027-.609-.075-.852h-4.633zm34.555 1.058c-.267-.718-1.094-2.042-2.778-2.042-1.668 0-3.057 1.3-3.057 3.21 0 1.8 1.375 3.21 3.218 3.21 1.49 0 2.35-.899 2.703-1.422l-1.106-.73c-.369.534-.871.888-1.597.888-.722 0-1.24-.327-1.572-.973l4.34-1.776-.15-.365zm-4.423 1.069c-.037-1.238.971-1.872 1.694-1.872.566 0 1.047.28 1.207.68l-2.901 1.192zm-3.527 3.114h1.427v-9.435h-1.427v9.435zm-2.335-5.51h-.048c-.32-.376-.931-.715-1.706-.715-1.624 0-3.11 1.411-3.11 3.221 0 1.8 1.486 3.2 3.11 3.2.775 0 1.386-.343 1.706-.73h.048v.46c0 1.228-.663 1.888-1.732 1.888-.871 0-1.412-.623-1.635-1.147l-1.24.513c.357.85 1.304 1.898 2.875 1.898 1.673 0 3.083-.974 3.083-3.343v-5.765h-1.351v.52zm-1.632 4.441c-.983 0-1.805-.814-1.805-1.935 0-1.131.822-1.957 1.805-1.957.969 0 1.733.826 1.733 1.957 0 1.121-.764 1.935-1.733 1.935zm18.595-8.366H74.17v9.435h1.422v-3.575h1.989c1.58 0 3.129-1.131 3.129-2.93 0-1.799-1.553-2.93-3.13-2.93zm.037 4.548h-2.026v-3.236h2.026c1.062 0 1.668.873 1.668 1.618 0 .73-.606 1.618-1.668 1.618zm8.793-1.356c-1.028 0-2.097.449-2.536 1.444l1.262.524c.272-.524.771-.693 1.3-.693.737 0 1.486.438 1.497 1.213v.099a3.151 3.151 0 00-1.486-.365c-1.36 0-2.745.74-2.745 2.123 0 1.264 1.114 2.079 2.366 2.079.957 0 1.485-.428 1.817-.925h.048v.73h1.374v-3.62c0-1.673-1.262-2.61-2.897-2.61zm-.172 5.17c-.465 0-1.113-.228-1.113-.799 0-.73.808-1.01 1.508-1.01.626 0 .92.137 1.3.317a1.72 1.72 0 01-1.695 1.492zm8.074-4.964l-1.635 4.09h-.048l-1.69-4.09h-1.535l2.54 5.717-1.449 3.18h1.486l3.914-8.897h-1.583zm-12.822 6.037h1.427v-9.435H81.49v9.435z"/><path fill="url(#a)" d="M1.285 19.785c-.224-.232-.354-.593-.354-1.061V2.03c0-.468.13-.83.354-1.062l.055-.05 9.452 9.35v.22L1.34 19.84l-.055-.055z" transform="matrix(1 0 0 -1 6.608 25.477)"/><path fill="url(#b)" d="M3.452.545L.305 3.664v.22l3.15 3.119.071-.04L7.258 4.86c1.065-.596 1.065-1.577 0-2.178L3.526.586l-.074-.04z" transform="matrix(1 0 0 -1 17.095 18.872)"/><path fill="url(#c)" d="M13.06 7.19l-3.22 3.19L.332.968C.685.6 1.262.556 1.918.924L13.06 7.19" transform="matrix(1 0 0 -1 7.561 25.477)"/><path fill="url(#d)" d="M13.06 3.188L1.918 9.454c-.656.365-1.233.32-1.586-.048L9.839 0l3.221 3.188z" transform="matrix(1 0 0 -1 7.561 15.098)"/></g></svg>