<svg xmlns="http://www.w3.org/2000/svg" xmlns:xlink="http://www.w3.org/1999/xlink" width="300" height="300"><defs><path id="a" d="M4.057 1.679h2.226c.42 0 .76.34.76.76s.34.76.76.76h4.307c.42 0 .76-.34.76-.76s.34-.76.76-.76h2.034a2.376 2.376 0 012.376 2.376v24.942a2.376 2.376 0 01-2.376 2.376H4.057a2.376 2.376 0 01-2.376-2.376V4.055a2.376 2.376 0 012.376-2.376z"/></defs><g fill="none" fill-rule="evenodd" transform="translate(18 12)"><rect width="19.333" height="32.739" x=".194" y=".156" fill="#C8C8C8" fill-rule="nonzero" rx="4.039"/><mask id="b" fill="#fff"><use xlink:href="#a"/></mask><use fill="#E11931" fill-rule="nonzero" xlink:href="#a"/><path fill="#C01529" d="M6.888 19.952c-4.52 0-8.181 3.563-8.181 7.96 0 1.551.456 3 1.244 4.222h13.872a7.763 7.763 0 001.243-4.221c0-4.398-3.662-7.96-8.178-7.96" mask="url(#b)"/></g></svg>