<svg xmlns="http://www.w3.org/2000/svg" xmlns:xlink="http://www.w3.org/1999/xlink" width="28" height="28"><defs><path id="a" d="M8 0h12a8 8 0 018 8v12a8 8 0 01-8 8H8a8 8 0 01-8-8V8a8 8 0 018-8zm9.214 6h-6.456A4.764 4.764 0 006 10.758v6.456a4.764 4.764 0 004.758 4.758h6.456a4.764 4.764 0 004.758-4.758v-6.456A4.764 4.764 0 0017.214 6zm3.151 11.214a3.15 3.15 0 01-3.151 3.151h-6.456a3.151 3.151 0 01-3.151-3.151v-6.456a3.15 3.15 0 013.151-3.151h6.456a3.15 3.15 0 013.151 3.151v6.456zm-6.379-7.359a4.136 4.136 0 00-4.13 4.131 4.136 4.136 0 004.13 4.13 4.136 4.136 0 004.13-4.13 4.136 4.136 0 00-4.13-4.13zm0 6.655a2.524 2.524 0 110-5.048 2.524 2.524 0 010 5.048zm4.139-5.634a.99.99 0 100-1.98.99.99 0 000 1.98z"/></defs><use fill="#858585" fill-rule="evenodd" xlink:href="#a"/></svg>