<svg xmlns="http://www.w3.org/2000/svg" width="32" height="32"><g fill="none" fill-rule="evenodd"><path d="M0 0h32v32H0z"/><path fill="#E11931" d="M16 32C7.163 32 0 24.837 0 16S7.163 0 16 0s16 7.163 16 16-7.163 16-16 16zm0-2c7.732 0 14-6.268 14-14S23.732 2 16 2 2 8.268 2 16s6.268 14 14 14z"/><path fill="#E11931" d="M14.015 20.752a8 8 0 113.97 0c.01.081.015.164.015.248v4a2 2 0 11-4 0v-4c0-.084.005-.167.015-.248zM16 19a6 6 0 100-12 6 6 0 000 12z"/><path stroke="#E11931" d="M19.203 10.604A4 4 0 0012 13"/></g></svg>