<svg xmlns="http://www.w3.org/2000/svg" width="12" height="12"><path fill="#8B8888" d="M11.994 9.47a.58.58 0 01-.178.509l-1.69 1.678a.95.95 0 01-.298.216c-.122.06-.243.097-.362.114a1.729 1.729 0 01-.241.013c-.161 0-.421-.028-.781-.083-.36-.055-.8-.19-1.321-.406-.521-.217-1.112-.54-1.773-.973-.66-.432-1.363-1.025-2.108-1.78a13.927 13.927 0 01-1.474-1.677A11.956 11.956 0 01.828 5.6a7.979 7.979 0 01-.534-1.233 6.545 6.545 0 01-.241-.954 3.15 3.15 0 01-.05-.63l.012-.253c.017-.119.055-.24.114-.363a.953.953 0 01.216-.298L2.035.178A.56.56 0 012.44 0c.11 0 .208.032.292.095a.884.884 0 01.216.236l1.36 2.58a.619.619 0 01.063.445.792.792 0 01-.216.407l-.622.623a.212.212 0 00-.045.082.314.314 0 00-.019.096c.034.178.11.38.229.61.101.203.258.451.47.743a8.1 8.1 0 00.902 1.01c.38.39.72.694 1.016.91.296.216.544.375.743.477.2.101.352.163.458.184l.158.032a.303.303 0 00.083-.02.212.212 0 00.083-.044l.724-.737a.778.778 0 01.533-.204c.144 0 .258.026.343.077h.013l2.452 1.449c.178.11.283.25.317.42z"/></svg>