<svg width="12" height="12" xmlns="http://www.w3.org/2000/svg"><g fill="none" fill-rule="evenodd"><path d="M0 0h12v12H0z"/><path d="M6.002 0A6.006 6.006 0 0112 6c0 3.308-2.69 6-5.998 6a5.948 5.948 0 01-3.301-.992l-2.307.738.748-2.23A5.956 5.956 0 010 6c0-3.309 2.69-6 5.998-6zM3.74 2.744c-.23 0-.469.068-.614.215-.176.18-.613.6-.613 1.46 0 .862.628 1.694.713 1.81l.015.022c.165.236 1.279 1.916 2.972 2.617 1.378.572 1.788.518 2.101.451.459-.099 1.033-.438 1.178-.846.144-.41.144-.759.102-.833-.042-.074-.159-.116-.335-.204-.176-.088-1.033-.512-1.195-.568-.16-.06-.31-.04-.43.13-.17.236-.335.476-.47.621-.105.113-.278.127-.423.067-.194-.081-.737-.271-1.407-.868a5.326 5.326 0 01-.973-1.21c-.102-.176-.01-.278.07-.373.089-.11.173-.188.261-.29.089-.102.139-.155.195-.275.06-.116.017-.236-.026-.324-.042-.089-.394-.95-.539-1.299-.116-.278-.205-.288-.381-.296-.06-.003-.127-.007-.201-.007z" fill="#858585" fill-rule="nonzero"/></g></svg>