<svg xmlns="http://www.w3.org/2000/svg" xmlns:xlink="http://www.w3.org/1999/xlink" width="28" height="28"><defs><path id="a" d="M8 0h12a8 8 0 018 8v12a8 8 0 01-8 8H8a8 8 0 01-8-8V8a8 8 0 018-8zm13.376 9.965c-.577-.667-1.643-.94-3.68-.94h-7.392c-2.083 0-3.168.29-3.743 1.001C6 10.72 6 11.74 6 13.153v2.694c0 2.738.666 4.128 4.304 4.128h7.392c1.766 0 2.745-.24 3.378-.83.649-.604.926-1.59.926-3.298v-2.694c0-1.49-.043-2.517-.624-3.188zm-5.104 4.907l-3.357 1.706a.528.528 0 01-.506-.016.5.5 0 01-.249-.429v-3.4a.5.5 0 01.248-.43.529.529 0 01.506-.016l3.357 1.695a.5.5 0 01.278.444.5.5 0 01-.277.446z"/></defs><use fill="#858585" fill-rule="evenodd" xlink:href="#a"/></svg>